<svg width="25" height="25" viewBox="0 0 25 25" fill="none" xmlns="http://www.w3.org/2000/svg">
<path d="M12.7788 24.5C14.4357 24.5 15.7788 23.1569 15.7788 21.5H9.77881C9.77881 23.1569 11.122 24.5 12.7788 24.5Z" fill="white"/>
<path d="M12.7788 3.37737L11.583 3.61888C8.84209 4.17243 6.77884 6.59694 6.77884 9.5C6.77884 10.4417 6.57729 12.7959 6.09054 15.1132C5.84891 16.2636 5.52562 17.4614 5.09595 18.5H20.4617C20.032 17.4614 19.7087 16.2636 19.4671 15.1132C18.9804 12.7959 18.7788 10.4417 18.7788 9.5C18.7788 6.59693 16.7156 4.1724 13.9746 3.61887L12.7788 3.37737ZM22.1078 18.5C22.4426 19.1711 22.831 19.7015 23.2788 20H2.27881C2.7266 19.7015 3.11498 19.1711 3.44986 18.5C4.79764 15.7991 5.27884 10.8187 5.27884 9.5C5.27884 5.86901 7.85911 2.84067 11.2861 2.14856C11.2813 2.09969 11.2788 2.05013 11.2788 2C11.2788 1.17157 11.9504 0.5 12.7788 0.5C13.6072 0.5 14.2788 1.17157 14.2788 2C14.2788 2.05013 14.2764 2.09968 14.2715 2.14855C17.6985 2.84063 20.2788 5.86899 20.2788 9.5C20.2788 10.8187 20.76 15.7991 22.1078 18.5Z" fill="white"/>
</svg>
