<svg width="28" height="29" viewBox="0 0 28 29" fill="none" xmlns="http://www.w3.org/2000/svg">
<path d="M14.5922 2.44735C14.391 2.3639 14.1666 2.3639 13.9654 2.44735L3.89443 6.62496L14.2788 10.9326L24.6632 6.62496L14.5922 2.44735ZM26.0913 7.91736L15.1226 12.4674V26.3326L26.0913 21.7826V7.91736ZM13.4351 26.3326V12.4674L2.46631 7.91736V21.7826L13.4351 26.3326ZM13.3387 0.822514C13.9422 0.572183 14.6154 0.572183 15.2189 0.822514L27.2484 5.81254C27.5688 5.94542 27.7788 6.26717 27.7788 6.62496V21.7826C27.7788 22.4981 27.3587 23.1416 26.718 23.4074L14.5922 28.4374C14.391 28.5208 14.1666 28.5208 13.9654 28.4374L1.83959 23.4074C1.19891 23.1416 0.778809 22.4981 0.778809 21.7826V6.62496C0.778809 6.26717 0.988861 5.94542 1.3092 5.81254L13.3387 0.822514Z" fill="white"/>
</svg>
