<svg width="36" height="29" viewBox="0 0 36 29" fill="none" xmlns="http://www.w3.org/2000/svg">
<path d="M0.778809 3.125C0.778809 2.64175 1.2685 2.25 1.87256 2.25H5.15381C5.65569 2.25 6.09318 2.52326 6.2149 2.91278L7.10153 5.75H32.4976C32.8252 5.75 33.1357 5.86753 33.3434 6.07026C33.5511 6.27299 33.6343 6.53955 33.5701 6.7966L31.3826 15.5466C31.2843 15.9395 30.8651 16.2288 30.3648 16.2489L9.80928 17.0737L10.4365 19.75H29.2163C29.8204 19.75 30.3101 20.1418 30.3101 20.625C30.3101 21.1082 29.8204 21.5 29.2163 21.5H27.0288H11.7163H9.52881C9.00248 21.5 8.55079 21.2001 8.45379 20.7863L5.17855 6.8119L4.29983 4H1.87256C1.2685 4 0.778809 3.60825 0.778809 3.125ZM7.56545 7.5L9.40244 15.3378L29.4046 14.5352L31.1634 7.5H7.56545ZM11.7163 21.5C9.30006 21.5 7.34131 23.067 7.34131 25C7.34131 26.933 9.30006 28.5 11.7163 28.5C14.1326 28.5 16.0913 26.933 16.0913 25C16.0913 23.067 14.1326 21.5 11.7163 21.5ZM27.0288 21.5C24.6126 21.5 22.6538 23.067 22.6538 25C22.6538 26.933 24.6126 28.5 27.0288 28.5C29.4451 28.5 31.4038 26.933 31.4038 25C31.4038 23.067 29.4451 21.5 27.0288 21.5ZM11.7163 23.25C12.9244 23.25 13.9038 24.0335 13.9038 25C13.9038 25.9665 12.9244 26.75 11.7163 26.75C10.5082 26.75 9.52881 25.9665 9.52881 25C9.52881 24.0335 10.5082 23.25 11.7163 23.25ZM27.0288 23.25C28.2369 23.25 29.2163 24.0335 29.2163 25C29.2163 25.9665 28.2369 26.75 27.0288 26.75C25.8207 26.75 24.8413 25.9665 24.8413 25C24.8413 24.0335 25.8207 23.25 27.0288 23.25Z" fill="white"/>
</svg>
