<svg width="25" height="25" viewBox="0 0 25 25" fill="none" xmlns="http://www.w3.org/2000/svg">
<path d="M16.2637 14.5276H15.4737L15.1937 14.2576C16.1737 13.1176 16.7637 11.6376 16.7637 10.0276C16.7637 6.43759 13.8537 3.52759 10.2637 3.52759C6.67367 3.52759 3.76367 6.43759 3.76367 10.0276C3.76367 13.6176 6.67367 16.5276 10.2637 16.5276C11.8737 16.5276 13.3537 15.9376 14.4937 14.9576L14.7637 15.2376V16.0276L19.7637 21.0176L21.2537 19.5276L16.2637 14.5276ZM10.2637 14.5276C7.77367 14.5276 5.76367 12.5176 5.76367 10.0276C5.76367 7.53759 7.77367 5.52759 10.2637 5.52759C12.7537 5.52759 14.7637 7.53759 14.7637 10.0276C14.7637 12.5176 12.7537 14.5276 10.2637 14.5276Z" fill="#4F5559"/>
</svg>
