<svg width="23" height="20" viewBox="0 0 23 20" fill="none" xmlns="http://www.w3.org/2000/svg">
<path d="M16.156 12.7834C17.2433 11.5049 17.8855 9.92661 17.8855 8.21875C17.8855 3.9558 13.884 0.5 8.948 0.5C4.01195 0.5 0.010498 3.9558 0.010498 8.21875C0.010498 12.4817 4.01195 15.9375 8.948 15.9375C10.9261 15.9375 12.754 15.3825 14.2345 14.4431L14.2333 14.4438C14.2739 14.4913 14.3191 14.5368 14.3688 14.5798L19.6632 19.1522C20.2002 19.6159 21.0708 19.6159 21.6078 19.1522C22.1447 18.6884 22.1447 17.9366 21.6078 17.4728L16.3134 12.9004C16.2636 12.8574 16.211 12.8184 16.156 12.7834ZM16.5105 8.21875C16.5105 11.8259 13.1247 14.75 8.948 14.75C4.77134 14.75 1.3855 11.8259 1.3855 8.21875C1.3855 4.61164 4.77134 1.6875 8.948 1.6875C13.1247 1.6875 16.5105 4.61164 16.5105 8.21875Z" fill="#EDA415"/>
</svg>
